<svg xmlns="http://www.w3.org/2000/svg" version="1.1" xmlns:xlink="http://www.w3.org/1999/xlink" xmlns:svgjs="http://svgjs.com/svgjs" width="1280" height="720" preserveAspectRatio="none" viewBox="0 0 1280 720"><g mask="url(&quot;#SvgjsMask1025&quot;)" fill="none"><rect width="1280" height="720" x="0" y="0" fill="rgba(9, 20, 48, 1)"></rect><path d="M1322.6666666666665 720L0 720 L0 409.92Q44.73 390.65, 64 435.39Q82.13 346.85, 170.66666666666666 364.98Q230.43 318.08, 277.3333333333333 377.84Q372.64 366.48, 384 461.79Q412.84 383.97, 490.66666666666663 412.81Q558.63 374.11, 597.3333333333333 442.07Q641.57 379.64, 703.9999999999999 423.87Q786.53 399.73, 810.6666666666665 482.26Q827.12 434.72, 874.6666666666665 451.17Q908.87 378.71, 981.3333333333331 412.91Q1025.85 393.43, 1045.333333333333 437.94Q1117.17 403.11, 1151.9999999999998 474.94Q1178.39 437.33, 1215.9999999999998 463.72Q1260.73 401.79, 1322.6666666666665 446.52z" fill="rgba(43, 81, 158, 1)"></path><path d="M1344 720L0 720 L0 538.1Q-7.2 466.9, 64 459.7Q114.42 403.46, 170.66666666666666 453.88Q231.02 450.24, 234.66666666666666 510.59Q281.74 451, 341.3333333333333 498.07Q402.43 495.16, 405.3333333333333 556.26Q420.25 507.17, 469.3333333333333 522.09Q481.18 469.94, 533.3333333333333 481.78Q573.13 457.57, 597.3333333333333 497.37Q648.11 484.14, 661.3333333333333 534.92Q702.37 469.29, 767.9999999999999 510.32Q783.9 462.23, 831.9999999999999 478.13Q853.35 435.49, 895.9999999999999 456.84Q975.9 430.08, 1002.6666666666665 509.98Q1042.79 486.1, 1066.6666666666665 526.22Q1103.11 455.99, 1173.3333333333333 492.43Q1253.06 465.49, 1280 545.22Q1291.82 493.04, 1344 504.86z" fill="rgba(37, 71, 125, 1)"></path><path d="M1301.3333333333333 720L0 720 L0 554.37Q81.79 572.16, 64 653.96Q118.43 601.73, 170.66666666666666 656.16Q172.34 593.84, 234.66666666666666 595.51Q280.27 534.45, 341.3333333333333 580.05Q393.26 567.98, 405.3333333333333 619.91Q443.84 551.75, 512 590.25Q588.83 560.42, 618.6666666666666 637.25Q642.98 554.89, 725.3333333333333 579.2Q763.32 510.52, 831.9999999999999 548.5Q873.4 525.9, 895.9999999999999 567.3Q967.7 532.33, 1002.6666666666665 604.03Q1073.9 568.6, 1109.3333333333333 639.83Q1153.48 619.98, 1173.3333333333333 664.12Q1178.06 604.85, 1237.3333333333333 609.58Q1251.36 559.61, 1301.3333333333333 573.63z" fill="rgba(28, 59, 102, 1)"></path><path d="M1344 720L0 720 L0 672.74Q48.35 657.09, 64 705.44Q130.38 665.15, 170.66666666666666 731.53Q182.9 679.76, 234.66666666666666 692Q276.55 627.22, 341.3333333333333 669.1Q360.69 624.46, 405.3333333333333 643.82Q442.97 617.46, 469.3333333333333 655.09Q569.24 648.33, 576 748.24Q601.81 710.05, 640 735.86Q673.17 662.37, 746.6666666666666 695.54Q771.92 614.13, 853.3333333333333 639.39Q893.05 615.11, 917.3333333333333 654.82Q978.31 651.8, 981.3333333333333 712.77Q989.88 657.32, 1045.3333333333333 665.86Q1110.38 624.24, 1152 689.28Q1195.41 668.69, 1216 712.11Q1261.88 694, 1280 739.88Q1283.02 678.9, 1344 681.93z" fill="rgba(219, 215, 215, 1)"></path></g><defs><mask id="SvgjsMask1025"><rect width="1280" height="720" fill="#ffffff"></rect></mask></defs></svg>