<svg xmlns="http://www.w3.org/2000/svg" version="1.1" xmlns:xlink="http://www.w3.org/1999/xlink" xmlns:svgjs="http://svgjs.com/svgjs" width="1280" height="720" preserveAspectRatio="none" viewBox="0 0 1280 720"><g mask="url(&quot;#SvgjsMask1006&quot;)" fill="none"><rect width="1280" height="720" x="0" y="0" fill="#1e3266"></rect><path d="M1365.3333333333333 720L0 720 L0 375.92Q79.48 391.4, 64 470.89Q61.25 404.13, 128 401.38Q148.77 358.15, 192 378.92Q215.88 338.8, 256 362.68Q303.19 345.88, 320 393.07Q418.87 385.28, 426.66666666666663 484.15Q456.51 407.33, 533.3333333333333 437.18Q604.17 401.35, 639.9999999999999 472.18Q681.9 407.41, 746.6666666666665 449.31Q770.52 366.5, 853.3333333333331 390.35Q877.83 350.85, 917.3333333333331 375.35Q1000.59 351.94, 1023.9999999999998 435.19Q1063.34 410.53, 1087.9999999999998 449.88Q1091.45 389.33, 1151.9999999999998 392.78Q1189.26 323.38, 1258.6666666666665 360.64Q1318.37 313.68, 1365.3333333333333 373.38z" fill="#182f5d"></path><path d="M1322.6666666666665 720L0 720 L0 549.6Q40 525.6, 64 565.6Q96.68 491.61, 170.66666666666666 524.29Q194.2 483.83, 234.66666666666666 507.36Q306.8 472.83, 341.3333333333333 544.96Q384.18 523.81, 405.3333333333333 566.65Q409.4 464.05, 512 468.12Q571.88 421.33, 618.6666666666666 481.21Q688.48 487.02, 682.6666666666666 556.83Q744.19 511.68, 789.3333333333333 573.2Q791.54 468.74, 895.9999999999999 470.95Q921.56 432.51, 959.9999999999999 458.08Q1033.97 425.39, 1066.6666666666665 499.36Q1119.98 488.67, 1130.6666666666665 541.98Q1157.25 504.56, 1194.6666666666665 531.14Q1220.29 492.76, 1258.6666666666665 518.38Q1274.28 469.99, 1322.6666666666665 485.6z" fill="#25467d"></path><path d="M1301.3333333333333 720L0 720 L0 579.77Q44.36 560.13, 64 604.48Q77.4 553.88, 128 567.29Q151.04 526.33, 192 549.36Q241.12 534.48, 256 583.6Q344.83 565.76, 362.66666666666663 654.59Q409.82 595.08, 469.33333333333326 642.23Q511.67 577.9, 575.9999999999999 620.24Q585.66 565.9, 639.9999999999999 575.56Q704.79 533.68, 746.6666666666665 598.47Q773.13 560.93, 810.6666666666665 587.39Q855.59 525.65, 917.3333333333331 570.58Q992.63 539.21, 1023.9999999999998 614.5Q1101.5 585.34, 1130.6666666666665 662.84Q1175.81 601.32, 1237.3333333333333 646.46Q1261.46 606.59, 1301.3333333333333 630.72z" fill="#356cb1"></path><path d="M1386.6666666666667 720L0 720 L0 649.27Q60.25 645.52, 64 705.77Q111.8 646.9, 170.66666666666666 694.7Q236.61 653.97, 277.3333333333333 719.91Q287.39 623.3, 384 633.35Q471.75 657.11, 448 744.86Q446.31 636.5, 554.6666666666666 634.81Q615.44 631.58, 618.6666666666666 692.35Q661.63 671.31, 682.6666666666666 714.27Q748.66 673.6, 789.3333333333333 739.59Q801.72 687.98, 853.3333333333333 700.36Q884.16 624.52, 959.9999999999999 655.35Q986.38 617.73, 1023.9999999999999 644.11Q1076.7 632.81, 1088 685.52Q1151.92 685.44, 1152 749.36Q1172.16 705.53, 1216 725.69Q1223.88 669.57, 1280 677.45Q1325.94 616.72, 1386.6666666666667 662.66z" fill="white"></path></g><defs><mask id="SvgjsMask1006"><rect width="1280" height="720" fill="#ffffff"></rect></mask></defs></svg>